<svg xmlns="http://www.w3.org/2000/svg" style="display: none">
  <symbol id="thermometer" viewBox="0 0 24 24" fill="currentColor">
    <path
      d="M10 2a2 2 0 0 1 4 0v10.268a4 4 0 1 1-4 0V2zM13 15.732V6h-2v9.732a2 2 0 1 0 2 0z"
    />
  </symbol>
  <symbol id="humidity" viewBox="0 0 24 24" fill="currentColor">
    <path
      d="M12 2.5c3.5 3.9 6 7.02 6 9.75A6 6 0 0 1 6 12.25c0-2.73 2.5-5.85 6-9.75zM9 12.5a3 3 0 1 0 6 0"
    />
  </symbol>
  <symbol id="bolt" viewBox="0 0 24 24" fill="currentColor">
    <path
      d="M11 2 5 13h5v9l7-12h-5l4-8Z"
    />
  </symbol>
  <symbol id="users" viewBox="0 0 24 24" fill="currentColor">
    <path
      d="M6 9a4 4 0 1 1 8 0A4 4 0 0 1 6 9zm11 2a3 3 0 1 0-2-5.236A5.98 5.98 0 0 1 18 11zM4 17a4 4 0 0 1 4-4h4a4 4 0 0 1 4 4v3H4zm11-.5a3.5 3.5 0 0 1 5-3.163A4.99 4.99 0 0 0 16 21h-1z"
    />
  </symbol>
</svg>
